<svg id="Capa_1" data-name="Capa 1" xmlns="http://www.w3.org/2000/svg" viewBox="0 0 128 12.18"><title>logo</title><path d="M110.35,2.41c0-.09,0-.17,0-.26v-2l.11,0a.85.85,0,0,1,.16,0h10.48a.61.61,0,0,1,.11.21c.56,1.28,1.12,2.55,1.69,3.83a.41.41,0,0,0,.1.18c.11-.2.18-.4.27-.6l.27-.61c.08-.2.17-.4.26-.6s.17-.4.26-.6.17-.4.26-.6.17-.41.26-.61.17-.4.27-.6H128c0,.08,0,.12,0,.17l-1.26,2.49L124.53,7a.68.68,0,0,0-.08.34v4.42a.57.57,0,0,1,0,.22h-.14c-1.16,0-2.58,0-2.74,0,0,0,0-.06,0-.1V7.32a.8.8,0,0,0-.08-.37q-1-2-2.08-4.08l-.11-.19h-3.05a.83.83,0,0,0,0,.13v9.11c-.06.06-.12,0-.18,0h-2.53c-.06,0-.12,0-.18,0a.29.29,0,0,1,0-.09V2.7l-.15,0h-2.69a.51.51,0,0,0,0,.13A4,4,0,0,1,110.6,4a3.64,3.64,0,0,1-.15,1,3.38,3.38,0,0,1-.87,1.36,3.66,3.66,0,0,1-.75.56l-.11.06,0,0c0,.07,0,.11.07.17l1.65,3.2.72,1.4c0,.05.07.09.06.16l0,0h-3.28c-.06,0-.07-.11-.1-.17-.41-.85-.81-1.7-1.21-2.55-.25-.51-.49-1-.73-1.54a1.09,1.09,0,0,1-.08-.15,6.18,6.18,0,0,0-1,0l0,.1v4.09a.57.57,0,0,1,0,.22H99.3a.34.34,0,0,1-.09-.18c-.14-.46-.29-.92-.43-1.38l-.06-.17c-.06-.05-.13,0-.19,0H95.06l-.06.15c-.15.47-.31,1-.47,1.43l-.06.16h-3a.22.22,0,0,1,0-.16c.29-.79.58-1.58.86-2.38Q94,4.87,95.66.31c0-.06,0-.13.08-.19s2.06,0,2.26,0l.07.19q1,2.79,2,5.58c.55,1.5,1.09,3,1.64,4.49l.06.18s0,0,0,0V.12l.11,0a.48.48,0,0,1,.12,0h4.51a4.5,4.5,0,0,1,1.46.22,3.63,3.63,0,0,1,2.2,2S110.27,2.38,110.35,2.41Z" transform="translate(0 0)"/><path d="M84.78.1h4.75a4.26,4.26,0,0,1,1.73.32A3.64,3.64,0,0,1,93.45,3.1a3.76,3.76,0,0,1-.24,2.36,3.67,3.67,0,0,1-2.56,2.13,4.62,4.62,0,0,1-1.17.13H87.91a.39.39,0,0,0-.21,0,.66.66,0,0,0,0,.2v4a.29.29,0,0,1-.2,0H84.8a.36.36,0,0,1,0-.1.57.57,0,0,1,0-.13V.1Z" transform="translate(0 0)"/><path d="M0,12.05V.14L.18.1A1.2,1.2,0,0,1,.37.1h4a6.89,6.89,0,0,1,1.5.16,3.94,3.94,0,0,1,3,3.26,12.44,12.44,0,0,1,.1,1.37c0,.8,0,1.59,0,2.39a10.86,10.86,0,0,1-.11,1.4A3.92,3.92,0,0,1,5.7,11.94a5.27,5.27,0,0,1-1.12.13H.25Z" transform="translate(0 0)"/><path d="M68.75,6.09,68.69,7.9a5.48,5.48,0,0,1-.32,1.6,3.41,3.41,0,0,1-.77,1.24,4.23,4.23,0,0,1-2.52,1.36,5.21,5.21,0,0,1-2.48-.16,4.37,4.37,0,0,1-2.33-1.83,3.4,3.4,0,0,1-.49-1.41,10.67,10.67,0,0,1-.14-1.59c0-.82,0-1.63,0-2.45a8.3,8.3,0,0,1,.17-1.49,3.15,3.15,0,0,1,.44-1.11A4.37,4.37,0,0,1,62.77.18a4.7,4.7,0,0,1,1-.17A5.45,5.45,0,0,1,65.66.2,4.34,4.34,0,0,1,68,1.88a3.53,3.53,0,0,1,.58,1.42,6.71,6.71,0,0,1,.13,1C68.72,4.89,68.73,5.49,68.75,6.09Z" transform="translate(0 0)"/><path d="M76.4,7.09l.16.32,2.22,4.29a1,1,0,0,1,.14.34c-.26,0-2.79.05-3.32,0a.9.9,0,0,1-.17-.32c-.61-1.27-1.22-2.55-1.82-3.82l-.15-.29c-.32,0-.64,0-1,0a.81.81,0,0,0,0,.37v3.7c0,.12,0,.23,0,.36l-.19,0H69.75l-.2,0a1.37,1.37,0,0,1,0-.19,1.55,1.55,0,0,1,0-.22V.17A.49.49,0,0,1,69.88.1h4.36a5.53,5.53,0,0,1,1.34.17,3.73,3.73,0,0,1,2.73,3.22A3.74,3.74,0,0,1,78.2,5a3.43,3.43,0,0,1-1.52,1.93Z" transform="translate(0 0)"/><path d="M16.54,7.12l.14.29q1.13,2.16,2.23,4.32A.61.61,0,0,1,19,12c-.26,0-2.73.05-3.31,0a.7.7,0,0,1-.17-.29C15,10.5,14.35,9.22,13.74,8l-.14-.3a3,3,0,0,0-1,0,1.08,1.08,0,0,0,0,.36v3.7a.56.56,0,0,1-.05.34c-.35,0-2.61,0-2.86,0a.36.36,0,0,1,0-.11V.14l.19,0h4.43a4.65,4.65,0,0,1,1.39.17,3.65,3.65,0,0,1,2.73,3,3.69,3.69,0,0,1,0,1.62A3.4,3.4,0,0,1,16.8,6.91a1.88,1.88,0,0,1-.23.16S16.56,7.09,16.54,7.12Z" transform="translate(0 0)"/><path d="M26.81,4.75V7.2a1.21,1.21,0,0,1,0,.14,5.77,5.77,0,0,1-.72,0H22.41a.72.72,0,0,0,0,.19V9.24a2,2,0,0,0,0,.2c.29,0,.57,0,.85,0h3.43c.28,0,.56,0,.85,0a.5.5,0,0,1,0,.16c0,.76,0,1.53,0,2.29a.69.69,0,0,1,0,.13.79.79,0,0,1-.34,0H19.47a1.28,1.28,0,0,1,0-.17c0-.66,0-11.5,0-11.75l.17,0h7.89a.5.5,0,0,1,0,.16c0,.76,0,1.52,0,2.29a.69.69,0,0,1,0,.13.79.79,0,0,1-.34,0H22.74a.73.73,0,0,0-.33,0,.18.18,0,0,0,0,.09V4.5c0,.06,0,.13,0,.19a.72.72,0,0,0,.35,0h4.08Z" transform="translate(0 0)"/><path d="M29.56,8.75h.05a3.23,3.23,0,0,0,1.65.71,4.9,4.9,0,0,0,1.62,0,2.23,2.23,0,0,0,.57-.18.89.89,0,0,0,.5-.71A1.2,1.2,0,0,0,33.87,8a.71.71,0,0,0-.44-.42,3.29,3.29,0,0,0-.54-.14l-1.46-.21a4.89,4.89,0,0,1-1.21-.31,5.2,5.2,0,0,1-.62-.32,2.6,2.6,0,0,1-1.15-1.51,4.22,4.22,0,0,1-.08-2.23A3.37,3.37,0,0,1,29.85.75,4.12,4.12,0,0,1,31.53.1a7.36,7.36,0,0,1,3.2.18,4.28,4.28,0,0,1,1.74,1,1.59,1.59,0,0,1,.13.13s0,0,0,.06c-.15.19-1.51,1.56-1.79,1.8-.08,0-.13-.06-.18-.11a2.17,2.17,0,0,0-1.13-.49,8.56,8.56,0,0,0-1.13-.06,1.59,1.59,0,0,0-.61.13,1.15,1.15,0,0,0-.59.54.83.83,0,0,0,.3,1.13,1.7,1.7,0,0,0,.62.22l1.43.19a6,6,0,0,1,1.31.32,3.83,3.83,0,0,1,.75.39,2.58,2.58,0,0,1,1,1.32,4.74,4.74,0,0,1,.16,2.39,3.27,3.27,0,0,1-1.36,2A4.63,4.63,0,0,1,33.7,12a6.13,6.13,0,0,1-1.27.16,8.6,8.6,0,0,1-2.58-.29,4.66,4.66,0,0,1-1.91-1.05l-.16-.15-.06-.07C27.86,10.41,29.14,9.12,29.56,8.75Z" transform="translate(0 0)"/><path d="M36.82,10.59l1.87-1.86.12.08A2.73,2.73,0,0,0,40,9.38a5,5,0,0,0,2,.13,1.77,1.77,0,0,0,.59-.19.88.88,0,0,0,.49-.79,2.09,2.09,0,0,0,0-.25.83.83,0,0,0-.54-.71A3.3,3.3,0,0,0,42,7.44l-1.46-.21a4.91,4.91,0,0,1-1.3-.35,2.85,2.85,0,0,1-1.82-2.4,4.37,4.37,0,0,1,0-1.53A3.45,3.45,0,0,1,38.92.79,4.12,4.12,0,0,1,40.63.1,7.3,7.3,0,0,1,44,.33a4.23,4.23,0,0,1,1.59.92l.12.11,0,.07a.38.38,0,0,1-.08.11L44.06,3.16,44,3.25l-.19-.14a2.06,2.06,0,0,0-1-.46,6.25,6.25,0,0,0-1.22-.07,1.8,1.8,0,0,0-.61.13,1.17,1.17,0,0,0-.57.53.83.83,0,0,0,.3,1.14,1.67,1.67,0,0,0,.68.23l1.74.25a4.42,4.42,0,0,1,1.14.34,2.75,2.75,0,0,1,1.66,2,5,5,0,0,1,.06,1.84,3.23,3.23,0,0,1-1.22,2.06,4.49,4.49,0,0,1-1.62.81,5.53,5.53,0,0,1-1.51.23A8.8,8.8,0,0,1,39,11.88a4.73,4.73,0,0,1-2-1.1Z" transform="translate(0 0)"/><path d="M54.22,2.72c0,.72,0,1.39,0,2.06a.72.72,0,0,0,.37,0h4a1.1,1.1,0,0,1,0,.16V7.29s0,.06,0,.09-.2,0-.3,0c-.84,0-1.68,0-2.52,0H54.56l-.3,0a.77.77,0,0,0,0,.39v3.83a.84.84,0,0,1,0,.38l-.18,0c-1,0-2.39,0-2.68,0a1.1,1.1,0,0,1,0-.18,1.61,1.61,0,0,1,0-.22V.14l.19,0a1.08,1.08,0,0,1,.18,0h7.71a1.48,1.48,0,0,1,0,.19V2.5a1.37,1.37,0,0,1,0,.19.83.83,0,0,1-.35,0H54.22Z" transform="translate(0 0)"/></svg>